<?xml version="1.0" encoding="UTF-8"?>
<svg width="1024px" height="1024px" viewBox="0 0 1024 1024" version="1.1" xmlns="http://www.w3.org/2000/svg" xmlns:xlink="http://www.w3.org/1999/xlink">
    <!-- Generator: Sketch 49.2 (51160) - http://www.bohemiancoding.com/sketch -->
    <title>回到顶部</title>
    <desc>Created with Sketch.</desc>
    <defs></defs>
    <g id="回到顶部" stroke="none" stroke-width="1" fill="none" fill-rule="evenodd">
        <g id="Group-4" transform="translate(192.000000, 0.000000)" fill="#000000">
            <path d="M1.01506105e-14,43.2 C1.01506105e-14,19.3156627 23.8571429,0 53.3571429,0 L586.642857,0 C616.071429,0 640,19.3156627 640,43.2 C640,67.026506 616.142857,86.4 586.642857,86.4 L53.3571429,86.4 C23.8571429,86.4 0,67.026506 1.01506105e-14,43.2 Z M262.576135,231.672863 C299.109279,191.038383 357.447921,191.665459 392.83717,233.052429 L622.188103,500.813582 C657.648845,542.200552 638.488605,575.74908 579.578017,575.74908 L59.4632924,575.999911 C0.481210228,576.062618 -17.6781217,543.141165 18.8550225,502.506685 L262.576135,231.672863 Z" id="Shape" fill-rule="nonzero"></path>
            <path d="M74.2757417,804.102564 L0,804.102564 L0,770.072874 L189.877836,770.072874 L189.877836,804.102564 L115.602094,804.102564 L115.602094,1021.92713 L74.2757417,1021.92713 L74.2757417,804.102564 Z M209.610239,896 C209.610239,866.749291 210.541003,847.172339 212.40256,837.268556 C214.38822,827.364773 217.428717,819.361254 221.524142,813.25776 C228.101642,801.626573 238.650306,791.262304 253.170448,782.164642 C267.442383,772.951821 285.251008,768.230321 306.596859,768 C328.190917,768.230321 346.185695,772.951821 360.581734,782.164642 C374.853668,791.262304 385.154128,801.626573 391.483421,813.25776 C396.075261,819.361254 399.239859,827.364773 400.977312,837.268556 C402.590662,847.172339 403.397324,866.749291 403.397324,896 C403.397324,924.790067 402.590662,944.251861 400.977312,954.385965 C399.239859,964.520069 396.075261,972.638746 391.483421,978.74224 C385.154128,990.373427 374.853668,1000.62254 360.581734,1009.48988 C346.185695,1018.7027 328.190917,1023.53936 306.596859,1024 C285.251008,1023.53936 267.442383,1018.7027 253.170448,1009.48988 C238.650306,1000.62254 228.101642,990.373427 221.524142,978.74224 C219.538481,974.941951 217.739004,971.314457 216.125654,967.859649 C214.636409,964.289681 213.39539,959.798498 212.40256,954.385965 C210.541003,944.251861 209.610239,924.790067 209.610239,896 Z M250.936591,896 C250.936591,920.759458 251.929406,937.515026 253.915067,946.267206 C255.65252,955.019387 259.189425,962.101637 264.525887,967.51417 C268.869519,972.696382 274.578208,976.899669 281.652123,980.124157 C288.601935,983.924445 296.916764,985.824561 306.596859,985.824561 C316.401057,985.824561 324.902039,983.924445 332.100058,980.124157 C338.925766,976.899669 344.386251,972.696382 348.481675,967.51417 C353.818138,962.101637 357.479145,955.019387 359.464805,946.267206 C361.326362,937.515026 362.257126,920.759458 362.257126,896 C362.257126,871.240542 361.326362,854.369815 359.464805,845.387314 C357.479145,836.865454 353.818138,829.898363 348.481675,824.48583 C344.386251,819.303618 338.925766,814.985172 332.100058,811.530364 C324.902039,808.190717 316.401057,806.405759 306.596859,806.175439 C296.916764,806.405759 288.601935,808.190717 281.652123,811.530364 C274.578208,814.985172 268.869519,819.303618 264.525887,824.48583 C259.189425,829.898363 255.65252,836.865454 253.915067,845.387314 C251.929406,854.369815 250.936591,871.240542 250.936591,896 Z M492.565445,887.535762 L553.438045,887.535762 C568.70281,887.305442 580.182238,882.929417 587.876672,874.407557 C595.198796,866.116018 598.859802,856.903335 598.859802,846.769231 C598.859802,838.362531 597.370579,831.280281 594.392088,825.522267 C591.289494,820.340055 586.945927,816.251927 581.361257,813.25776 C572.922199,808.305868 563.118148,805.945118 551.948807,806.175439 L492.565445,806.175439 L492.565445,887.535762 Z M451.425247,770.072874 L549.714951,770.072874 C560.387876,770.072874 570.688335,770.994143 580.616638,772.836707 C590.54494,775.255073 600.597196,780.20689 610.773706,787.692308 C619.336867,793.335161 626.286574,801.396259 631.623037,811.875843 C637.207707,822.009947 640,833.986436 640,847.805668 C640,866.461632 632.926191,883.447517 618.77836,898.763833 C604.258217,914.88627 583.036789,923.177686 555.113438,923.638327 L492.565445,923.638327 L492.565445,1021.92713 L451.425247,1021.92713 L451.425247,770.072874 Z" id="TOP"></path>
        </g>
    </g>
</svg>