<?xml version="1.0" encoding="utf-8"?>
<!-- Generator: Adobe Illustrator 18.1.0, SVG Export Plug-In . SVG Version: 6.00 Build 0)  -->
<svg version="1.1" id="图层_1" xmlns="http://www.w3.org/2000/svg" xmlns:xlink="http://www.w3.org/1999/xlink" x="0px" y="0px"
	 viewBox="0 0 1024 1024" enable-background="new 0 0 1024 1024" xml:space="preserve">
<g>
	<path fill="#333333" d="M481.5,915.9c-28.8,0-57.7-3.4-85.8-9.9c-99.2-22.9-183.6-83-237.5-169.4c-54-86.4-71.1-188.6-48.2-287.8
		c15.1-65.2,47-124.5,91.3-172.5l-17.4,40.3c-10.9,25.1,0.7,54.3,25.8,65.2c6.4,2.8,13.1,4.1,19.6,4.1c19.2,0,37.5-11.2,45.6-29.9
		l84.1-194.4c3.5-6.1,5.7-12.9,6.4-19.9c1.4-11.6-1.2-23.5-7.8-33.5c-9.2-14-25.3-21.3-41.7-22.2L95.7,87.2
		c-27.4,0.2-49.5,22.5-49.3,49.9c0.1,27.3,22.3,49.3,49.6,49.3c0.1,0,0.2,0,0.3,0l54.7-0.3C83.4,250.3,34.8,333.7,13.3,426.6
		C-15.5,551.6,6,680.4,74,789.2c68,108.8,174.3,184.6,299.3,213.5c35.4,8.2,71.7,12.4,108,12.4c0,0,0,0,0,0
		c27.4,0,49.6-22.2,49.6-49.5C531,938.2,508.9,916,481.5,915.9z"/>
	<path fill="#333333" d="M1012.4,597.9c28.9-125,7.3-253.8-60.7-362.7c-68-108.8-174.3-184.6-299.3-213.5
		c-35.6-8.2-71.9-12.4-108-12.4c0,0,0,0-0.1,0c-27.4,0-49.6,22.2-49.6,49.5c0,27.4,22.2,49.6,49.5,49.6c28.7,0,57.5,3.3,85.8,9.9
		c99.2,22.9,183.6,83.1,237.5,169.4c54,86.3,71.1,188.5,48.1,287.7c-15,65.2-46.9,124.5-91.2,172.5l17.4-40.3
		c10.9-25.1-0.7-54.3-25.9-65.2c-25.1-10.9-54.3,0.7-65.2,25.9l-84,194.3c-3.6,6.2-5.8,13.1-6.5,20.2c-1.4,11.6,1.3,23.4,7.8,33.3
		c9.2,13.9,24.7,22.2,41.4,22.2c0.1,0,0.2,0,0.3,0l220.1-1.3c27.4-0.2,49.5-22.5,49.3-49.9c-0.2-27.3-22.3-49.3-49.6-49.3
		c-0.1,0-0.2,0-0.3,0l-54.7,0.3C942.3,774.1,990.9,690.8,1012.4,597.9z"/>
</g>
</svg>
