<?xml version="1.0" encoding="UTF-8"?>
<svg width="1024px" height="1024px" viewBox="0 0 1024 1024" version="1.1" xmlns="http://www.w3.org/2000/svg" xmlns:xlink="http://www.w3.org/1999/xlink">
    <!-- Generator: Sketch 49.2 (51160) - http://www.bohemiancoding.com/sketch -->
    <title>收藏-full</title>
    <desc>Created with Sketch.</desc>
    <defs></defs>
    <g id="收藏-full" stroke="none" stroke-width="1" fill="none" fill-rule="evenodd">
        <path d="M792.070734,934.519275 C773.03561,951.021403 748.55369,960 722.791763,960 C705.309575,960 686.780689,955.026738 670.02869,946.313047 L512.052667,864.140515 L354.397901,945.487197 C316.111267,966.934238 267.677012,963.366373 233.064565,936.360448 C199.070751,909.837204 181.753643,865.004707 189.806325,823.125581 L222.500534,646.765372 L97.0731933,525.106215 C68.0220912,494.883874 56.9096835,449.569628 68.5510881,407.39707 C82.3100991,364.455891 117.228565,333.444187 158.20076,328.226335 L332.284119,295.298736 L410.689816,129.618424 C429.836169,89.7818893 469.116658,64 512.155449,64 C556.344871,64 597.890389,91.1578619 613.766435,129.923199 L691.923282,295.079789 L863.389711,326.309995 C907.274082,332.397146 944.008853,365.132959 954.346142,405.926409 C967.670209,447.510149 957.129226,492.544418 926.053524,524.831051 L801.606727,646.753513 L833.145529,823.424742 C840.840481,866.170711 824.266171,909.510816 792.070734,934.519275 Z" id="Shape" fill="#000000" fill-rule="nonzero"></path>
    </g>
</svg>