<?xml version="1.0" encoding="UTF-8"?>
<svg width="15px" height="16px" viewBox="0 0 15 16" version="1.1" xmlns="http://www.w3.org/2000/svg" xmlns:xlink="http://www.w3.org/1999/xlink">
    <!-- Generator: Sketch 52.2 (67145) - http://www.bohemiancoding.com/sketch -->
    <title>形状</title>
    <desc>Created with Sketch.</desc>
    <g id="发职位" stroke="none" stroke-width="1" fill="none" fill-rule="evenodd">
        <g id="发职位-社会招聘-引导层" transform="translate(-712.000000, -125.000000)" fill="#666666" fill-rule="nonzero">
            <g id="tab" transform="translate(120.000000, 104.000000)">
                <path d="M595.004211,22 L595.004211,24 L594,24 L594,35 L605,35 L605,24 L603.997437,24 L603.997437,22 L605,22 C606.104569,22 607,22.8954305 607,24 L607,35 C607,36.1045695 606.104569,37 605,37 L594,37 C592.895431,37 592,36.1045695 592,35 L592,24 C592,22.8954305 592.895431,22 594,22 L595.004211,22 Z M598,22 L601,22 L601,24 L598,24 L598,22 Z M602.497711,21 C602.911925,21 603.247711,21.3357864 603.247711,21.75 L603.247711,24.25 C603.247711,24.6642136 602.911925,25 602.497711,25 C602.083498,25 601.747711,24.6642136 601.747711,24.25 L601.747711,21.75 C601.747711,21.3357864 602.083498,21 602.497711,21 Z M596.516846,21 C596.931059,21 597.266846,21.3357864 597.266846,21.75 L597.266846,24.25 C597.266846,24.6642136 596.931059,25 596.516846,25 C596.102632,25 595.766846,24.6642136 595.766846,24.25 L595.766846,21.75 C595.766846,21.3357864 596.102632,21 596.516846,21 Z M599.483944,29 C600.1743,29 600.733944,28.4403559 600.733944,27.75 C600.733944,27.0596441 600.1743,26.5 599.483944,26.5 C598.793589,26.5 598.233944,27.0596441 598.233944,27.75 C598.233944,28.4403559 598.793589,29 599.483944,29 Z M599.4818,30.5 C597.963017,30.5 596.7318,29.2687831 596.7318,27.75 C596.7318,26.2312169 597.963017,25 599.4818,25 C601.000583,25 602.2318,26.2312169 602.2318,27.75 C602.2318,29.2687831 601.000583,30.5 599.4818,30.5 Z M596.515533,33.555191 L602.515533,33.555191 C602.515533,31.8983368 601.172388,30.555191 599.515533,30.555191 C597.858679,30.555191 596.515533,31.8983368 596.515533,33.555191 Z M603.910944,33.5568604 C601.566715,33.5568604 600.100048,33.5568604 599.510944,33.5568604 C598.921841,33.5568604 597.455174,33.5568604 595.110944,33.5568604 C595.110944,31.1268075 597.080891,29.1568604 599.510944,29.1568604 C601.940997,29.1568604 603.910944,31.1268075 603.910944,33.5568604 Z" id="形状"></path>
            </g>
        </g>
    </g>
</svg>