<?xml version="1.0" encoding="UTF-8"?>
<svg width="15px" height="16px" viewBox="0 0 15 16" version="1.1" xmlns="http://www.w3.org/2000/svg" xmlns:xlink="http://www.w3.org/1999/xlink">
    <!-- Generator: Sketch 52.4 (67378) - http://www.bohemiancoding.com/sketch -->
    <title>形状</title>
    <desc>Created with Sketch.</desc>
    <g id="发职位" stroke="none" stroke-width="1" fill="none" fill-rule="evenodd">
        <g id="发职位-猎头职位-服务类型" transform="translate(-713.000000, -125.000000)" fill="#5897FF" fill-rule="nonzero">
            <path d="M718.266846,126 L722.747711,126 L722.747711,125.75 C722.747711,125.335786 723.083498,125 723.497711,125 C723.911925,125 724.247711,125.335786 724.247711,125.75 L724.247711,126 L726,126 C727.104569,126 728,126.895431 728,128 L728,139 C728,140.104569 727.104569,141 726,141 L715,141 C713.895431,141 713,140.104569 713,139 L713,128 C713,126.895431 713.895431,126 715,126 L716.766846,126 L716.766846,125.75 C716.766846,125.335786 717.102632,125 717.516846,125 C717.931059,125 718.266846,125.335786 718.266846,125.75 L718.266846,126 Z M718.490822,133.64698 C717.077098,134.378894 716.110944,135.855049 716.110944,137.55686 L724.910944,137.55686 C724.910944,135.839318 723.926847,134.351623 722.491749,133.626875 C722.950824,133.135459 723.2318,132.475542 723.2318,131.75 C723.2318,130.231217 722.000583,129 720.4818,129 C718.963017,129 717.7318,130.231217 717.7318,131.75 C717.7318,132.485484 718.020528,133.153531 718.490822,133.64698 Z M720.483944,133 C719.793589,133 719.233944,132.440356 719.233944,131.75 C719.233944,131.059644 719.793589,130.5 720.483944,130.5 C721.1743,130.5 721.733944,131.059644 721.733944,131.75 C721.733944,132.440356 721.1743,133 720.483944,133 Z M717.515533,137.555191 C717.515533,135.898337 718.858679,134.555191 720.515533,134.555191 C722.172388,134.555191 723.515533,135.898337 723.515533,137.555191 L717.515533,137.555191 Z" id="形状"></path>
        </g>
    </g>
</svg>