<?xml version="1.0" encoding="UTF-8"?>
<svg width="1024px" height="1024px" viewBox="0 0 1024 1024" version="1.1" xmlns="http://www.w3.org/2000/svg" xmlns:xlink="http://www.w3.org/1999/xlink">
    <!-- Generator: Sketch 49.2 (51160) - http://www.bohemiancoding.com/sketch -->
    <title>删除</title>
    <desc>Created with Sketch.</desc>
    <defs></defs>
    <g id="删除" stroke="none" stroke-width="1" fill="none" fill-rule="evenodd">
        <g id="Group" transform="translate(73.000000, 107.000000)" fill="#000000" fill-rule="nonzero">
            <path d="M824.611514,149.661328 C854.091508,149.661328 877.857141,172.862225 877.857143,201.641694 C877.857143,230.421164 854.091509,253.622062 824.611515,253.622062 L53.3884851,253.622062 C23.9084908,253.622062 0.142857143,230.421164 0.142857143,201.641694 C0.142857143,172.862226 23.9084906,149.661328 53.3884843,149.661328 L172.630183,149.661328 L172.630183,112.362439 C172.630183,50.9169921 223.902989,0.862568187 286.844087,0.862568187 L592.399939,0.862568187 C655.012838,0.862568187 705.89937,50.9448764 705.89937,112.362439 L705.89937,149.661328 L824.611514,149.661328 Z M585.167944,112.362439 C585.167944,107.812537 582.243692,104.823302 578.326301,104.823302 L280.031287,104.823302 C275.91228,104.823302 272.49215,108.243432 272.49215,112.362439 L272.49215,149.661328 L585.167944,149.661328 L585.167944,112.362439 Z M230.623611,809.137432 C169.864704,809.137432 119.12374,765.553849 119.12374,710.231047 L119.12374,326.402792 C119.12374,299.238045 143.127426,278.620253 171.104107,278.620253 C199.080789,278.620253 223.084475,299.238045 223.084475,326.402792 L223.084475,710.231047 C223.084475,711.224357 225.818066,713.572356 230.623612,713.572356 L647.376389,713.572356 C652.181935,713.572356 654.915526,711.224357 654.915526,710.231047 L654.915525,327.501156 C654.915525,300.317199 678.832205,279.718617 706.895893,279.718617 C734.959579,279.718617 758.87626,300.317198 758.87626,327.501156 L758.876175,710.292204 C758.723965,765.595171 707.985563,809.137432 647.260139,809.137432 L230.623611,809.137432 Z M528.104882,630.57892 C500.363754,630.57892 476.124515,611.667252 476.124515,585.139484 L476.124515,329.73245 C476.124515,303.204682 500.363754,284.293014 528.104882,284.293014 C555.84601,284.293014 580.08525,303.204682 580.08525,329.73245 L580.08525,585.139485 C580.085248,611.667252 555.84601,630.57892 528.104882,630.57892 Z M349.54637,630.57892 C321.805242,630.57892 297.566003,611.667252 297.566003,585.139484 L297.566004,329.73245 C297.566004,303.204682 321.805243,284.293014 349.546371,284.293014 C377.287499,284.293014 401.526738,303.204682 401.526738,329.73245 L401.526738,585.139485 C401.526736,611.667252 377.287498,630.57892 349.54637,630.57892 Z" id="Combined-Shape"></path>
        </g>
    </g>
</svg>