<?xml version="1.0" encoding="UTF-8"?>
<svg width="1024px" height="1024px" viewBox="0 0 1024 1024" version="1.1" xmlns="http://www.w3.org/2000/svg" xmlns:xlink="http://www.w3.org/1999/xlink">
    <!-- Generator: Sketch 49.2 (51160) - http://www.bohemiancoding.com/sketch -->
    <title>下载</title>
    <desc>Created with Sketch.</desc>
    <defs></defs>
    <g id="下载" stroke="none" stroke-width="1" fill="none" fill-rule="evenodd">
        <path d="M96,907.218226 L96,624.023557 C96,597.500879 117.500879,576 144.023557,576 C170.546235,576 192.047114,597.500879 192.047114,624.023557 L192.047114,864.39262 L831.952886,864.39262 L831.952886,624.024255 C831.952886,597.501191 853.453765,576 879.976443,576 C906.499121,576 928,597.501191 928,624.024255 L928,912.300594 C928,931.843328 916.327081,948.659666 899.573253,956.157502 C893.52266,958.907861 886.800881,960.439734 879.721308,960.439734 L144.024255,960.439734 C117.501191,960.439734 96,938.938855 96,912.416177 C96.0161634,909.255114 96,908.246648 96,907.218226 Z M558.85599,645.442485 L657.679754,546.618721 C676.42492,527.873555 706.816839,527.873555 725.562005,546.618721 C744.307171,565.363887 744.307171,595.755806 725.562005,614.500972 L544.542669,795.520308 C525.797503,814.265474 495.405584,814.265474 476.660418,795.520308 L295.641082,614.500972 C276.895916,595.755806 276.895916,565.363887 295.641082,546.618721 C314.386248,527.873555 344.778167,527.873555 363.523333,546.618721 L462.808875,645.904263 L462.808875,112.816046 C462.808875,86.2929822 484.309754,64.7917911 510.832432,64.7917911 C537.355111,64.7917911 558.85599,86.2929822 558.85599,112.816046 L558.85599,645.442485 Z" id="Combined-Shape" fill="#000000" fill-rule="nonzero"></path>
    </g>
</svg>