<?xml version="1.0" encoding="UTF-8"?>
<svg width="1024px" height="1024px" viewBox="0 0 1024 1024" version="1.1" xmlns="http://www.w3.org/2000/svg" xmlns:xlink="http://www.w3.org/1999/xlink">
    <!-- Generator: Sketch 49.2 (51160) - http://www.bohemiancoding.com/sketch -->
    <title>编辑</title>
    <desc>Created with Sketch.</desc>
    <defs></defs>
    <g id="编辑" stroke="none" stroke-width="1" fill="none" fill-rule="evenodd">
        <g id="Group" transform="translate(128.000000, 142.000000)" fill="#000000" fill-rule="nonzero">
            <path d="M672,643.018887 L672,328.352221 C672,301.842553 693.490332,280.352221 720,280.352221 C746.509668,280.352221 768,301.842553 768,328.352221 L768,675.018887 C768,710.365111 739.346224,739.018887 704,739.018887 L64,739.018887 C28.653776,739.018887 0,710.365111 0,675.018887 L5.68434189e-14,64.9811128 C4.61852778e-14,29.6348888 28.653776,0.981112808 64,0.981112808 L410.666667,0.981112808 C437.176335,0.981112808 458.666667,22.4714448 458.666667,48.9811128 C458.666667,75.4907808 437.176335,96.9811128 410.666667,96.9811128 L96,96.9811128 L96,643.018887 L672,643.018887 Z M262.066002,466.88443 C241.212543,446.649549 240.711087,413.340869 260.945968,392.48741 C261.174205,392.252197 261.404634,392.019121 261.637226,391.788214 L636.821445,19.3212942 C657.945519,-1.64978708 691.972181,-1.8440686 713.334347,18.8844297 C734.187805,39.1193106 734.689261,72.4279907 714.45438,93.281449 C714.226144,93.5166626 713.995714,93.7497384 713.763122,93.9806458 L338.578903,466.447565 C317.454829,487.418646 283.428167,487.612928 262.066002,466.88443 Z" id="Combined-Shape"></path>
        </g>
    </g>
</svg>