<?xml version="1.0" encoding="UTF-8"?>
<svg width="1024px" height="1024px" viewBox="0 0 1024 1024" version="1.1" xmlns="http://www.w3.org/2000/svg" xmlns:xlink="http://www.w3.org/1999/xlink">
    <!-- Generator: Sketch 49.2 (51160) - http://www.bohemiancoding.com/sketch -->
    <title>Artboard</title>
    <desc>Created with Sketch.</desc>
    <defs></defs>
    <g id="Artboard" stroke="none" stroke-width="1" fill="none" fill-rule="evenodd">
        <path d="M256,160 L768,160 C874.038672,160 960,245.961328 960,352 L960,672 C960,778.038672 874.038672,864 768,864 L256,864 C149.961328,864 64,778.038672 64,672 L64,352 C64,245.961328 149.961328,160 256,160 Z M256,256 C202.980664,256 160,298.980664 160,352 L160,672 C160,725.019336 202.980664,768 256,768 L768,768 C821.019336,768 864,725.019336 864,672 L864,352 C864,298.980664 821.019336,256 768,256 L256,256 Z M864,364.703028 L641.332178,587.37085 C566.351514,662.351514 444.783838,662.351514 369.803174,587.37085 L160,377.567676 L160,352 C160,321.874412 173.876361,294.989823 195.586071,277.389245 L437.685425,519.488599 C475.175757,556.978931 535.959595,556.978931 573.449927,519.488599 L820.996869,271.941657 C846.913243,289.132185 864,318.57068 864,352 L864,364.703028 Z" id="Combined-Shape" fill="#979797"></path>
    </g>
</svg>