<?xml version="1.0" encoding="UTF-8"?>
<svg width="1024px" height="1024px" viewBox="0 0 1024 1024" version="1.1" xmlns="http://www.w3.org/2000/svg" xmlns:xlink="http://www.w3.org/1999/xlink">
    <!-- Generator: Sketch 52.2 (67145) - http://www.bohemiancoding.com/sketch -->
    <title>眼睛</title>
    <desc>Created with Sketch.</desc>
    <g id="眼睛" stroke="none" stroke-width="1" fill="none" fill-rule="evenodd">
        <path d="M512,209.403241 C310.268486,209.403241 137.990794,334.880024 68.191078,512 C137.98977,689.119977 310.268486,814.596759 512,814.596759 C713.933105,814.596759 886.010229,689.119976 955.808922,512 C886.009206,334.880023 713.933105,209.403241 512,209.403241 Z M512,713.731514 C400.644843,713.731514 310.268486,623.35618 310.268486,512 C310.268486,400.64382 400.64382,310.268486 512,310.268486 C623.35618,310.268486 713.731514,400.64382 713.731514,512 C713.731514,623.35618 623.355157,713.731514 512,713.731514 Z M512,390.961296 C445.227224,390.961296 390.961296,445.227224 390.961296,512 C390.961296,578.772776 445.227224,633.038704 512,633.038704 C578.772776,633.038704 633.038704,578.772776 633.038704,512 C633.038704,445.227224 578.772776,390.961296 512,390.961296 Z" id="Shape" fill="#000000" fill-rule="nonzero"></path>
    </g>
</svg>