<?xml version="1.0" encoding="UTF-8"?>
<svg width="1024px" height="1024px" viewBox="0 0 1024 1024" version="1.1" xmlns="http://www.w3.org/2000/svg" xmlns:xlink="http://www.w3.org/1999/xlink">
    <!-- Generator: Sketch 49.2 (51160) - http://www.bohemiancoding.com/sketch -->
    <title>Artboard</title>
    <desc>Created with Sketch.</desc>
    <defs></defs>
    <g id="Artboard" stroke="none" stroke-width="1" fill="none" fill-rule="evenodd">
        <path d="M512,1024 C229.230208,1024 0,794.769792 0,512 C0,229.230208 229.230208,0 512,0 C794.769792,0 1024,229.230208 1024,512 C1024,794.769792 794.769792,1024 512,1024 Z M345.142857,197 L345.142857,534.714286 L429.571429,534.714286 C440.14291,515.571333 452.14279,502.142896 465.571429,494.428571 C479.000067,486.999963 493.857061,483.285714 510.142857,483.285714 C528.428663,483.285714 543.714224,485.857117 556,491 C568.285776,497.285746 577.571397,505.714233 583.857143,516.285714 C595.571487,538.57154 601.14286,567.57125 600.571429,603.285714 C600.571429,617.857216 600.285717,632.857066 599.714286,648.285714 C598.571423,664.000079 595.428597,678.571361 590.285714,692 C585.428547,705.428639 576.857204,716.285673 564.571429,724.571429 C551.714221,733.1429 534.571536,737.428571 513.142857,737.428571 C463.142607,736.85714 433.285763,712.571669 423.571429,664.571429 L334,664.571429 C342.571471,722.000287 364.714107,763.5713 400.428571,789.285714 C435.571604,814.428697 474.285503,827 516.571429,827 C548.000157,826.428569 575.142743,819.142927 598,805.142857 C621.428689,791.714219 639.285653,776.857224 651.571429,760.571429 C665.571499,743.999917 675.571399,725.000107 681.571429,703.571429 C687.285743,681.857034 690.142857,650.714489 690.142857,610.142857 C690.142857,583.857011 689.285723,561.714376 687.571429,543.714286 C685.857134,525.999911 683.00002,511.000061 679,498.714286 C671.285676,476.142744 658.714373,456.2858 641.285714,439.142857 C629.57137,426.28565 614.285809,415.428616 595.428571,406.571429 C575.428471,398.571389 553.428691,394.285717 529.428571,393.714286 C491.999813,393.714286 458.714431,405.142743 429.571429,428 L429.571429,286.571429 L678.142857,286.571429 L678.142857,197 L345.142857,197 Z" id="Combined-Shape" fill="#000000"></path>
    </g>
</svg>