<?xml version="1.0" encoding="UTF-8"?>
<svg width="1024px" height="1024px" viewBox="0 0 1024 1024" version="1.1" xmlns="http://www.w3.org/2000/svg" xmlns:xlink="http://www.w3.org/1999/xlink">
    <!-- Generator: Sketch 48.2 (47327) - http://www.bohemiancoding.com/sketch -->
    <title>4</title>
    <desc>Created with Sketch.</desc>
    <defs></defs>
    <g id="Page-1" stroke="none" stroke-width="1" fill="none" fill-rule="evenodd">
        <g id="4" fill="#000000">
            <path d="M512,1024 C229.230208,1024 0,794.769792 0,512 C0,229.230208 229.230208,0 512,0 C794.769792,0 1024,229.230208 1024,512 C1024,794.769792 794.769792,1024 512,1024 Z M303.285714,711.571429 L563.857143,711.571429 L563.857143,804.571429 L653.428571,804.571429 L653.428571,711.571429 L703.142857,711.571429 L703.142857,627.142857 L653.428571,627.142857 L653.428571,447.571429 L563.857143,447.571429 L563.857143,627.142857 L400.571429,627.142857 L611.857143,179.714286 L512,179.714286 L303.285714,627.142857 L303.285714,711.571429 Z"></path>
        </g>
    </g>
</svg>