<?xml version="1.0" encoding="UTF-8"?>
<svg width="16px" height="16px" viewBox="0 0 16 16" version="1.1" xmlns="http://www.w3.org/2000/svg" xmlns:xlink="http://www.w3.org/1999/xlink">
    <!-- Generator: Sketch 52.4 (67378) - http://www.bohemiancoding.com/sketch -->
    <title>形状</title>
    <desc>Created with Sketch.</desc>
    <g id="发职位" stroke="none" stroke-width="1" fill="none" fill-rule="evenodd">
        <g id="发职位-海外人才招聘" transform="translate(-507.000000, -117.000000)" fill="#5897FF" fill-rule="nonzero">
            <g id="tab" transform="translate(120.000000, 96.000000)">
                <g id="Group-5" transform="translate(387.000000, 18.000000)">
                    <path d="M0.184638799,12.7167399 C0.0637174529,12.1637176 0,11.5892998 0,11 C0,10.4118584 0.0634672293,9.83854044 0.183926459,9.28652124 L3.53367226,9.28652124 C3.46483842,9.83854044 3.42857143,10.4118584 3.42857143,11 C3.42857143,11.5892998 3.4649814,12.1637176 3.53407931,12.7167399 L0.184638799,12.7167399 Z M0.771030537,14.4310256 L3.86916031,14.4310256 C4.60313759,17.1324995 6.17694647,19 8,19 C9.82305353,19 11.3968624,17.1324995 12.1308397,14.4310256 L15.2289695,14.4310256 C13.9445092,17.1324995 11.1903437,19 8,19 C4.80965633,19 2.05549078,17.1324995 0.771030537,14.4310256 Z M15.8153612,12.7167399 L12.4659207,12.7167399 C12.5350186,12.1637176 12.5714286,11.5892998 12.5714286,11 C12.5714286,10.4118584 12.5351616,9.83854044 12.4663277,9.28652124 L15.8160735,9.28652124 C15.9365328,9.83854044 16,10.4118584 16,11 C16,11.5892998 15.9362825,12.1637176 15.8153612,12.7167399 Z M5.26309135,12.7167399 C5.18564998,12.1753079 5.14285714,11.6003026 5.14285714,11 C5.14285714,10.4009025 5.18547834,9.82700078 5.26262539,9.28652124 L10.7373746,9.28652124 C10.8145217,9.82700078 10.8571429,10.4009025 10.8571429,11 C10.8571429,11.6003026 10.81435,12.1753079 10.7369086,12.7167399 L5.26309135,12.7167399 Z M5.65280999,14.4310256 L10.34719,14.4310256 C9.78515225,16.1769984 8.848106,17.2857143 8,17.2857143 C7.151894,17.2857143 6.21484775,16.1769984 5.65280999,14.4310256 Z M0.769480901,7.57223553 C2.05327466,4.86900356 4.80837274,3 8,3 C11.1916273,3 13.9467253,4.86900356 15.2305191,7.57223553 L12.1317252,7.57223553 C11.3981288,4.86900356 9.823787,3 8,3 C6.176213,3 4.60187123,4.86900356 3.8682748,7.57223553 L0.769480901,7.57223553 Z M5.6517609,7.57223553 C6.21368119,5.8243823 7.15136609,4.71428571 8,4.71428571 C8.84863391,4.71428571 9.78631881,5.8243823 10.3482391,7.57223553 L5.6517609,7.57223553 Z" id="形状"></path>
                </g>
            </g>
        </g>
    </g>
</svg>