<?xml version="1.0" encoding="UTF-8"?>
<svg width="16px" height="16px" viewBox="0 0 16 16" version="1.1" xmlns="http://www.w3.org/2000/svg" xmlns:xlink="http://www.w3.org/1999/xlink">
    <!-- Generator: Sketch 52.2 (67145) - http://www.bohemiancoding.com/sketch -->
    <title>Combined Shape</title>
    <desc>Created with Sketch.</desc>
    <g id="发职位" stroke="none" stroke-width="1" fill="none" fill-rule="evenodd">
        <g id="发职位-社会招聘-引导层" transform="translate(-507.000000, -125.000000)" fill="#666666" fill-rule="nonzero">
            <g id="tab" transform="translate(120.000000, 104.000000)">
                <g id="Group-5" transform="translate(387.000000, 18.000000)">
                    <path d="M1.95158893,12.7167399 L3.53407931,12.7167399 C3.4649814,12.1637176 3.42857143,11.5892998 3.42857143,11 C3.42857143,10.4118584 3.46483842,9.83854044 3.53367226,9.28652124 L1.95066609,9.28652124 C1.79668107,9.83123257 1.71428571,10.405994 1.71428571,11 C1.71428571,11.5951915 1.79701029,12.1710616 1.95158893,12.7167399 Z M2.73241851,14.4310256 C3.20720118,15.1584628 3.82859251,15.7815025 4.55465683,16.2582089 C4.28118138,15.709897 4.04975032,15.0957045 3.86916031,14.4310256 L2.73241851,14.4310256 Z M14.0484111,12.7167399 C14.2029897,12.1710616 14.2857143,11.5951915 14.2857143,11 C14.2857143,10.405994 14.2033189,9.83123257 14.0493339,9.28652124 L12.4663277,9.28652124 C12.5351616,9.83854044 12.5714286,10.4118584 12.5714286,11 C12.5714286,11.5892998 12.5350186,12.1637176 12.4659207,12.7167399 L14.0484111,12.7167399 Z M13.2675815,14.4310256 L12.1308397,14.4310256 C11.9502497,15.0957045 11.7188186,15.709897 11.4453432,16.2582089 C12.1714075,15.7815025 12.7927988,15.1584628 13.2675815,14.4310256 Z M5.26309135,12.7167399 L10.7369086,12.7167399 C10.81435,12.1753079 10.8571429,11.6003026 10.8571429,11 C10.8571429,10.4009025 10.8145217,9.82700078 10.7373746,9.28652124 L5.26262539,9.28652124 C5.18547834,9.82700078 5.14285714,10.4009025 5.14285714,11 C5.14285714,11.6003026 5.18564998,12.1753079 5.26309135,12.7167399 Z M5.65280999,14.4310256 C6.21484775,16.1769984 7.151894,17.2857143 8,17.2857143 C8.848106,17.2857143 9.78515225,16.1769984 10.34719,14.4310256 L5.65280999,14.4310256 Z M2.7302915,7.57223553 L3.8682748,7.57223553 C4.04899355,6.90630439 4.28073419,6.29099965 4.55465683,5.74179108 C3.82750776,6.21920969 3.20534468,6.84339914 2.7302915,7.57223553 Z M13.2697085,7.57223553 C12.7946553,6.84339914 12.1724922,6.21920969 11.4453432,5.74179108 C11.7192658,6.29099965 11.9510064,6.90630439 12.1317252,7.57223553 L13.2697085,7.57223553 Z M5.6517609,7.57223553 L10.3482391,7.57223553 C9.78631881,5.8243823 8.84863391,4.71428571 8,4.71428571 C7.15136609,4.71428571 6.21368119,5.8243823 5.6517609,7.57223553 Z M8,19 C3.581722,19 0,15.418278 0,11 C0,6.581722 3.581722,3 8,3 C12.418278,3 16,6.581722 16,11 C16,15.418278 12.418278,19 8,19 Z" id="Combined-Shape"></path>
                </g>
            </g>
        </g>
    </g>
</svg>