<?xml version="1.0" encoding="UTF-8"?>
<svg width="1024px" height="1024px" viewBox="0 0 1024 1024" version="1.1" xmlns="http://www.w3.org/2000/svg" xmlns:xlink="http://www.w3.org/1999/xlink">
    <!-- Generator: Sketch 49.2 (51160) - http://www.bohemiancoding.com/sketch -->
    <title>聊天</title>
    <desc>Created with Sketch.</desc>
    <defs></defs>
    <g id="聊天" stroke="none" stroke-width="1" fill="none" fill-rule="evenodd">
        <path d="M796.485935,702.574699 C826.719172,637.587825 853.333333,558.435359 853.333333,512 C853.333333,323.486805 700.513195,170.666667 512,170.666667 C323.486805,170.666667 170.666667,323.486805 170.666667,512 C170.666667,700.513195 323.486805,853.333333 512,853.333333 C543.709842,853.333333 604.582449,842.089662 620.176687,835.985084 C654.579807,822.517514 684.279239,823.244653 777.177201,831.204138 C778.284119,768.416076 782.027364,733.653651 796.485935,702.574699 Z M661.651871,941.93409 C638.659298,950.934847 564.426806,967.111111 512,967.111111 C260.649074,967.111111 56.8888889,763.350926 56.8888889,512 C56.8888889,260.649074 260.649074,56.8888889 512,56.8888889 C763.350926,56.8888889 967.111111,260.649074 967.111111,512 C967.111111,599.482185 913.759726,720.230577 899.64653,750.56714 C885.54856,780.870974 892.148682,956.724433 892.16294,957.103845 C891.841924,957.067074 684.626653,932.940298 661.651871,941.93409 Z M341.333333,568.888889 C372.752199,568.888889 398.222222,543.418866 398.222222,512 C398.222222,480.581134 372.752199,455.111111 341.333333,455.111111 C309.914468,455.111111 284.444444,480.581134 284.444444,512 C284.444444,543.418866 309.914468,568.888889 341.333333,568.888889 Z M512,568.888889 C543.418866,568.888889 568.888889,543.418866 568.888889,512 C568.888889,480.581134 543.418866,455.111111 512,455.111111 C480.581134,455.111111 455.111111,480.581134 455.111111,512 C455.111111,543.418866 480.581134,568.888889 512,568.888889 Z M682.666667,568.888889 C714.085532,568.888889 739.555556,543.418866 739.555556,512 C739.555556,480.581134 714.085532,455.111111 682.666667,455.111111 C651.247801,455.111111 625.777778,480.581134 625.777778,512 C625.777778,543.418866 651.247801,568.888889 682.666667,568.888889 Z" id="Combined-Shape" fill="#000000" fill-rule="nonzero"></path>
    </g>
</svg>