<?xml version="1.0" encoding="UTF-8"?>
<svg width="1024px" height="1024px" viewBox="0 0 1024 1024" version="1.1" xmlns="http://www.w3.org/2000/svg" xmlns:xlink="http://www.w3.org/1999/xlink">
    <!-- Generator: Sketch 49.2 (51160) - http://www.bohemiancoding.com/sketch -->
    <title>锁</title>
    <desc>Created with Sketch.</desc>
    <defs></defs>
    <g id="锁" stroke="none" stroke-width="1" fill="none" fill-rule="evenodd">
        <path d="M320,448 L320,256 C320,149.961328 405.961328,64 512,64 C618.038672,64 704,149.961328 704,256 L704,448 L796,448 C851.228475,448 896,492.771525 896,548 L896,860 C896,915.228475 851.228475,960 796,960 L228,960 C172.771525,960 128,915.228475 128,860 L128,548 C128,492.771525 172.771525,448 228,448 L320,448 Z M320,544 L224,544 L224,864 L800,864 L800,544 L704,544 L704,544.038086 L320,544.038086 L320,544 Z M416,448.038086 L608,448.038086 L608,256 C608,202.980664 565.019336,160 512,160 C458.980664,160 416,202.980664 416,256 L416,448.038086 Z M512,640 C547.346224,640 576,668.653776 576,704 C576,739.346224 547.346224,768 512,768 C476.653776,768 448,739.346224 448,704 C448,668.653776 476.653776,640 512,640 Z" id="Combined-Shape" fill="#000000" fill-rule="nonzero"></path>
    </g>
</svg>