<?xml version="1.0" encoding="UTF-8"?>
<svg width="1024px" height="1024px" viewBox="0 0 1024 1024" version="1.1" xmlns="http://www.w3.org/2000/svg" xmlns:xlink="http://www.w3.org/1999/xlink">
    <!-- Generator: Sketch 49.2 (51160) - http://www.bohemiancoding.com/sketch -->
    <title>时钟</title>
    <desc>Created with Sketch.</desc>
    <defs></defs>
    <g id="时钟" stroke="none" stroke-width="1" fill="none" fill-rule="evenodd">
        <path d="M512.001415,481.473566 L512.001415,320 C512.001415,284.653776 483.347639,256 448.001415,256 C412.655191,256 384.001415,284.653776 384.001415,320 L384.001415,511.438891 C383.993291,512.439359 384.00852,513.439505 384.047012,514.438468 C384.382977,523.406973 386.564381,531.903422 390.222525,539.559117 C393.869972,547.219914 399.100152,554.262172 405.85856,560.167328 C406.610676,560.825909 407.378351,561.467158 408.160963,562.090451 L567.84926,691.403484 C595.318436,713.647583 635.619007,709.411823 657.863107,681.942647 C680.107206,654.473472 675.871446,614.1729 648.40227,591.928801 L512.001415,481.473566 Z M512,960 C264.576432,960 64,759.423568 64,512 C64,264.576432 264.576432,64 512,64 C759.423568,64 960,264.576432 960,512 C960,759.423568 759.423568,960 512,960 Z" id="Combined-Shape" fill="#000000" fill-rule="nonzero"></path>
    </g>
</svg>