<?xml version="1.0" encoding="utf-8"?>
<!-- Generator: Adobe Illustrator 18.1.0, SVG Export Plug-In . SVG Version: 6.00 Build 0)  -->
<svg version="1.1" id="图层_1" xmlns="http://www.w3.org/2000/svg" xmlns:xlink="http://www.w3.org/1999/xlink" x="0px" y="0px"
	 viewBox="0 0 1024 1024" enable-background="new 0 0 1024 1024" xml:space="preserve">
<path fill="#333333" d="M512,0C229.7,0,0,229.7,0,512c0,282.3,229.7,512,512,512s512-229.7,512-512C1024,229.7,794.3,0,512,0z
	 M721.2,775.8l-209.1-208l-207.9,209c3.7-3.7-54.5-57.2-56-55.7l208-209l-209-207.9c1.5,1.5,59.7-52,55.7-56.1l209.1,208l207.9-209
	c0.6-0.6,56.7,55,56,55.7l-208,209l209,207.9C776.9,720.8,721.2,776.7,721.2,775.8z"/>
</svg>
