<?xml version="1.0" encoding="UTF-8"?>
<svg width="1109px" height="1109px" viewBox="0 0 1109 1109" version="1.1" xmlns="http://www.w3.org/2000/svg" xmlns:xlink="http://www.w3.org/1999/xlink">
    <!-- Generator: Sketch 49.1 (51147) - http://www.bohemiancoding.com/sketch -->
    <title>圆形问号@2x</title>
    <desc>Created with Sketch.</desc>
    <defs></defs>
    <g id="圆形问号" stroke="none" stroke-width="1" fill="none" fill-rule="evenodd">
        <path d="M554.5,1064 C273.11092,1064 45,835.88908 45,554.5 C45,273.11092 273.11092,45 554.5,45 C835.88908,45 1064,273.11092 1064,554.5 C1064,835.88908 835.88908,1064 554.5,1064 Z M558,183 C484,183 426,204 384,247 C342,289 321,346 321,419 L426,419 C426,375 435,341 453,317 C473,288 506,274 551,274 C587,274 616,284 636,304 C655,324 665,351 665,386 C665,412 655,436 637,459 L620,478 C558,533 520,574 507,602 C493,628 487,660 487,697 L487,714 L594,714 L594,697 C594,673 599,651 610,631 C619,613 633,595 652,579 C699,538 727,512 736,501 C761,469 774,428 774,379 C774,319 754,271 714,236 C674,200 622,183 558,183 Z M540,768 C520,768 502,774 488,788 C474,801 467,818 467,839 C467,859 474,876 488,890 C502,904 520,911 540,911 C560,911 578,904 592,891 C606,877 614,860 614,839 C614,818 607,801 593,788 C579,774 561,768 540,768 Z" id="Oval-2" fill="#3E4959" fill-rule="nonzero"></path>
    </g>
</svg>