<?xml version="1.0" encoding="utf-8"?>
<!-- Generator: Adobe Illustrator 18.1.0, SVG Export Plug-In . SVG Version: 6.00 Build 0)  -->
<svg version="1.1" id="图层_1" xmlns="http://www.w3.org/2000/svg" xmlns:xlink="http://www.w3.org/1999/xlink" x="0px" y="0px"
	 viewBox="0 0 1024 1024" enable-background="new 0 0 1024 1024" xml:space="preserve">
<g>
	<g>
		<path fill="#333333" d="M1009.6,940.1L580.9,513.7l426.5-428.6c19-19.1,18.9-49.9-0.2-68.9c-19.1-19-49.9-18.8-68.9,0.2
			L511.8,444.9L83.1,18.5C64-0.5,33.2-0.3,14.2,18.7c-19,19.1-18.9,49.9,0.2,68.9L443.1,514L16.5,942.6c-19,19.1-18.9,49.9,0.2,68.9
			c9.5,9.5,21.9,14.2,34.4,14.2c12.5,0,25-4.8,34.6-14.4l426.5-428.6l428.7,426.5c9.5,9.5,21.9,14.2,34.4,14.2
			c12.5,0,25-4.8,34.6-14.4C1028.8,989.9,1028.7,959.1,1009.6,940.1z"/>
	</g>
</g>
</svg>
