<?xml version="1.0" encoding="UTF-8"?>
<svg width="1024px" height="1024px" viewBox="0 0 1024 1024" version="1.1" xmlns="http://www.w3.org/2000/svg" xmlns:xlink="http://www.w3.org/1999/xlink">
    <!-- Generator: Sketch 49.2 (51160) - http://www.bohemiancoding.com/sketch -->
    <title>打印</title>
    <desc>Created with Sketch.</desc>
    <defs></defs>
    <g id="打印" stroke="none" stroke-width="1" fill="none" fill-rule="evenodd">
        <path d="M768,768 L768,704 C767.500145,668.473111 738.846369,639.819335 704,640 L320,640 C284.153921,639.819335 255.500145,668.473111 256,704 L256,768 L192,768 C121.307552,768 64,710.692448 64,640 L64,384 C64,313.307552 121.307552,256 192,256 L832,256 C902.692448,256 960,313.307552 960,384 L960,640 C960,710.692448 902.692448,768 832,768 L768,768 Z M864,640 L864,384 C864,366.326888 849.673112,352 832,352 L192,352 C174.326888,352 160,366.326888 160,384 L160,640 C160,647.076121 162.296764,653.615804 166.185476,658.914234 C185.404565,592.152502 247.141561,543.631792 320,544 L703.502283,544.00129 C776.218391,543.624285 837.55591,592.301936 857.32563,659.562998 C861.510008,654.153971 864,647.36777 864,640 Z M320,544 L704,544 C774.692448,544 832,601.307552 832,672 L832,800 C832,870.692448 774.692448,928 704,928 L320,928 C249.307552,928 192,870.692448 192,800 L192,672 C192,601.307552 249.307552,544 320,544 Z M320,640 C302.326888,640 288,654.326888 288,672 L288,800 C288,817.673112 302.326888,832 320,832 L704,832 C721.673112,832 736,817.673112 736,800 L736,672 C736,654.326888 721.673112,640 704,640 L320,640 Z M320,96 L704,96 C774.692448,96 832,153.307552 832,224 L832,352 L192,352 L192,224 C192,153.307552 249.307552,96 320,96 Z M288,256 L736,256 L736,224 C736,206.326888 721.673112,192 704,192 L320,192 C302.326888,192 288,206.326888 288,224 L288,256 Z" id="Combined-Shape" fill="#000000" fill-rule="nonzero"></path>
    </g>
</svg>