<?xml version="1.0" encoding="UTF-8"?>
<svg width="1024px" height="1024px" viewBox="0 0 1024 1024" version="1.1" xmlns="http://www.w3.org/2000/svg" xmlns:xlink="http://www.w3.org/1999/xlink">
    <!-- Generator: Sketch 49.2 (51160) - http://www.bohemiancoding.com/sketch -->
    <title>转发</title>
    <desc>Created with Sketch.</desc>
    <defs></defs>
    <g id="转发" stroke="none" stroke-width="1" fill="none" fill-rule="evenodd">
        <path d="M763.757908,160 L624,160 C597.490332,160 576,138.509668 576,112 C576,85.490332 597.490332,64 624,64 L880,64 C906.509668,64 928,85.490332 928,112 L928,368 C928,394.509668 906.509668,416 880,416 C853.490332,416 832,394.509668 832,368 L832,227.58904 L455.049706,604.539333 C436.295068,623.293971 405.888013,623.294192 387.133648,604.539826 C368.379282,585.785461 368.379503,555.378405 387.134141,536.623767 L763.757908,160 Z M96,907.218226 L96,117.320396 C96,116.272216 96.0167905,115.244641 96.0501172,114.237265 C96,85.5008789 117.501191,64 144.024255,64 L402.649497,64 C429.172561,64 450.673752,85.5008789 450.673752,112.023557 C450.673752,138.546235 429.172561,160.047114 402.649497,160.047114 L192.047114,160.047114 L192.047114,864.39262 L831.952886,864.39262 L831.952886,592.259826 C831.952886,565.736763 853.453765,544.235572 879.976443,544.235572 C906.499121,544.235572 928,565.736763 928,592.259826 L928,912.300594 C928,931.843328 916.327081,948.659666 899.573253,956.157502 C893.52266,958.907861 886.800881,960.439734 879.721308,960.439734 L144.024255,960.439734 C117.501191,960.439734 96,938.938855 96,912.416177 C96.0161634,909.255114 96,908.246648 96,907.218226 Z" id="Combined-Shape" fill="#000000" fill-rule="nonzero"></path>
    </g>
</svg>