<?xml version="1.0" encoding="UTF-8"?>
<svg width="1024px" height="1024px" viewBox="0 0 1024 1024" version="1.1" xmlns="http://www.w3.org/2000/svg" xmlns:xlink="http://www.w3.org/1999/xlink">
    <!-- Generator: Sketch 49.2 (51160) - http://www.bohemiancoding.com/sketch -->
    <title>备注</title>
    <desc>Created with Sketch.</desc>
    <defs></defs>
    <g id="备注" stroke="none" stroke-width="1" fill="none" fill-rule="evenodd">
        <path d="M896,432 L896,864 C896,917.019336 853.019336,960 800,960 L224,960 C170.980664,960 128,917.019336 128,864 L128,160 C128,106.980664 170.980664,64 224,64 L528,64 C554.509668,64 576,85.490332 576,112 C576,138.509668 554.509668,160 528,160 L288,160 C252.653776,160 224,188.653776 224,224 L224,800 C224,835.346224 252.653776,864 288,864 L736,864 C771.346224,864 800,835.346224 800,800 L800,432 C800,405.490332 821.490332,384 848,384 C874.509668,384 896,405.490332 896,432 Z M336,640 L688,640 C714.509668,640 736,661.490332 736,688 C736,714.509668 714.509668,736 688,736 L336,736 C309.490332,736 288,714.509668 288,688 C288,661.490332 309.490332,640 336,640 Z M417.941125,482.607214 L802.607214,97.9411255 C821.35238,79.1959595 851.744299,79.1959595 870.489465,97.9411255 C889.234631,116.686292 889.234631,147.07821 870.489465,165.823376 L485.823376,550.489465 C467.07821,569.234631 436.686292,569.234631 417.941125,550.489465 C399.195959,531.744299 399.195959,501.35238 417.941125,482.607214 Z" id="Combined-Shape" fill="#000000" fill-rule="nonzero"></path>
    </g>
</svg>