<?xml version="1.0" encoding="UTF-8"?>
<svg width="1024px" height="1024px" viewBox="0 0 1024 1024" version="1.1" xmlns="http://www.w3.org/2000/svg" xmlns:xlink="http://www.w3.org/1999/xlink">
    <!-- Generator: Sketch 49.2 (51160) - http://www.bohemiancoding.com/sketch -->
    <title>举报</title>
    <desc>Created with Sketch.</desc>
    <defs></defs>
    <g id="举报" stroke="none" stroke-width="1" fill="none" fill-rule="evenodd">
        <path d="M209.941125,206.058875 L255.195959,251.313708 C273.941125,270.058875 273.941125,300.450793 255.195959,319.195959 C236.450793,337.941125 206.058875,337.941125 187.313708,319.195959 L142.058875,273.941125 C123.313708,255.195959 123.313708,224.804041 142.058875,206.058875 C160.804041,187.313708 191.195959,187.313708 209.941125,206.058875 Z M882.39232,273.941125 L837.137486,319.195959 C818.39232,337.941125 788.000401,337.941125 769.255235,319.195959 C750.510069,300.450793 750.510069,270.058875 769.255235,251.313708 L814.510069,206.058875 C833.255235,187.313708 863.647154,187.313708 882.39232,206.058875 C901.137486,224.804041 901.137486,255.195959 882.39232,273.941125 Z M544,111.448512 L544,175.448512 C544,201.95818 522.509668,223.448512 496,223.448512 C469.490332,223.448512 448,201.95818 448,175.448512 L448,111.448512 C448,84.9388435 469.490332,63.4485115 496,63.4485115 C522.509668,63.4485115 544,84.9388435 544,111.448512 Z M732,768 L292,768 C236.771525,768 192,723.228475 192,668 L192,608 C192,431.26888 335.26888,288 512,288 C688.73112,288 832,431.26888 832,608 L832,668 C832,723.228475 787.228475,768 732,768 Z M736,672 L736,597.333333 C736,479.512587 635.711784,384 512,384 C388.288216,384 288,479.512587 288,597.333333 L288,672 L736,672 Z M176,864 L848,864 C874.509668,864 896,885.490332 896,912 C896,938.509668 874.509668,960 848,960 L176,960 C149.490332,960 128,938.509668 128,912 C128,885.490332 149.490332,864 176,864 Z" id="Combined-Shape" fill="#000000"></path>
    </g>
</svg>