<?xml version="1.0" encoding="UTF-8"?>
<svg width="1024px" height="1024px" viewBox="0 0 1024 1024" version="1.1" xmlns="http://www.w3.org/2000/svg" xmlns:xlink="http://www.w3.org/1999/xlink">
    <!-- Generator: Sketch 49.2 (51160) - http://www.bohemiancoding.com/sketch -->
    <title>推荐</title>
    <desc>Created with Sketch.</desc>
    <defs></defs>
    <g id="推荐" stroke="none" stroke-width="1" fill="none" fill-rule="evenodd">
        <path d="M222.391061,160 C205.606542,160 192,173.132981 192,189.333333 L192,834.666667 C192,850.867019 205.606542,864 222.391061,864 L801.608939,864 C818.393458,864 832,850.867019 832,834.666667 L832,189.333333 C832,173.132981 818.393458,160 801.608939,160 L222.391061,160 Z M195.605634,64 L828.394366,64 C883.405039,64 928,106.980664 928,160 L928,864 C928,917.019336 883.405039,960 828.394366,960 L195.605634,960 C140.594961,960 96,917.019336 96,864 L96,160 C96,106.980664 140.594961,64 195.605634,64 Z M337.669565,544 L686.356181,544 C713.787925,544 736.025746,522.509668 736.025746,496 C736.025746,469.490332 713.787925,448 686.356181,448 L337.669565,448 C310.237822,448 288,469.490332 288,496 C288,522.509668 310.237822,544 337.669565,544 Z M337.669565,704.574632 L686.356181,704.574632 C713.787925,704.574632 736.025746,683.0843 736.025746,656.574632 C736.025746,630.064964 713.787925,608.574632 686.356181,608.574632 L337.669565,608.574632 C310.237822,608.574632 288,630.064964 288,656.574632 C288,683.0843 310.237822,704.574632 337.669565,704.574632 Z M521.491525,368 L694.695034,368 C717.610171,368 736.18656,346.509668 736.18656,320 C736.18656,293.490332 717.610171,272 694.695034,272 L521.491525,272 C498.576389,272 480,293.490332 480,320 C480,346.509668 498.576389,368 521.491525,368 Z M352,384 C387.346224,384 416,355.346224 416,320 C416,284.653776 387.346224,256 352,256 C316.653776,256 288,284.653776 288,320 C288,355.346224 316.653776,384 352,384 Z" id="Combined-Shape" fill="#000000" fill-rule="nonzero"></path>
    </g>
</svg>