<?xml version="1.0" encoding="UTF-8"?>
<svg width="1024px" height="1024px" viewBox="0 0 1024 1024" version="1.1" xmlns="http://www.w3.org/2000/svg" xmlns:xlink="http://www.w3.org/1999/xlink">
    <!-- Generator: Sketch 49.2 (51160) - http://www.bohemiancoding.com/sketch -->
    <title>保存</title>
    <desc>Created with Sketch.</desc>
    <defs></defs>
    <g id="保存" stroke="none" stroke-width="1" fill="none" fill-rule="evenodd">
        <path d="M128,64 L896,64 C931.346224,64 960,92.653776 960,128 L960,896 C960,931.346224 931.346224,960 896,960 L128,960 C92.653776,960 64,931.346224 64,896 L64,128 C64,92.653776 92.653776,64 128,64 Z M256,160 L160,160 L160,864 L864,864 L864,160 L768,160 L768,159.985524 L256,159.985524 L256,160 Z M300.054065,736.000149 C273.544386,736.000149 252.054044,714.509821 252.054044,688.000158 C252.054044,661.490494 273.544386,640.000166 300.054065,640.000166 L716.054356,640.000166 C742.564035,640.000166 764.054376,661.490494 764.054376,688.000158 C764.054376,714.509821 742.564035,736.000149 716.054356,736.000149 L300.054065,736.000149 Z M256,160 L768,160 L768,448 C768,483.346224 739.346224,512 704,512 L320,512 C284.653776,512 256,483.346224 256,448 L256,160 Z M352,160 L352,416 L672,416 L672,160 L352,160 Z" id="Combined-Shape" fill="#000000" fill-rule="nonzero"></path>
    </g>
</svg>