<?xml version="1.0" encoding="UTF-8"?>
<svg width="18px" height="14px" viewBox="0 0 18 14" version="1.1" xmlns="http://www.w3.org/2000/svg" xmlns:xlink="http://www.w3.org/1999/xlink">
    <!-- Generator: Sketch 52.2 (67145) - http://www.bohemiancoding.com/sketch -->
    <title>Combined Shape</title>
    <desc>Created with Sketch.</desc>
    <g id="发职位" stroke="none" stroke-width="1" fill="none" fill-rule="evenodd">
        <g id="发职位-社会招聘-引导层" transform="translate(-333.000000, -126.000000)" fill="#666666" fill-rule="nonzero">
            <g id="tab" transform="translate(120.000000, 104.000000)">
                <g id="Group-4" transform="translate(213.000000, 18.000000)">
                    <g id="Group-2" transform="translate(0.000000, 2.000000)">
                        <path d="M4.49293529,9.15567438 L4.49293529,13.5 C4.49293529,13.8106602 4.74477512,14.0625 5.05543529,14.0625 L12.9304353,14.0625 C13.2410955,14.0625 13.4929353,13.8106602 13.4929353,13.5 L13.4929353,9.16271958 L9.43459108,11.1543926 C9.32960644,11.2142249 9.16685563,11.25 9.00032522,11.25 C8.83379481,11.25 8.67106158,11.2141184 8.56523313,11.1540908 L4.49293529,9.15567438 Z M2.80543529,8.32756019 L0.165282262,7.03194645 C0.0632333955,6.97403161 0,6.86505514 0,6.74675761 C0,6.62851335 0.0632509697,6.51937709 0.165282262,6.46156878 L8.56605935,2.33944222 C8.7739191,2.22043452 9.2246042,2.2195823 9.43583923,2.34050747 L17.8347177,6.46156877 C17.9367666,6.51937707 18,6.62849559 18,6.7467576 C18,6.86503738 17.936749,6.97403161 17.8347177,7.03194643 L15.1804353,8.33456208 L15.1804353,13.5 C15.1804353,14.7426407 14.173076,15.75 12.9304353,15.75 L5.05543529,15.75 C3.8127946,15.75 2.80543529,14.7426407 2.80543529,13.5 L2.80543529,8.32756019 Z M3.08513049,6.74682736 L9.00016855,9.46096653 L14.9149285,6.74685226 L9.00002478,4.03308968 L3.08513049,6.74682736 Z M16.0442788,13.3693789 L16.0442788,9.43187889 C16.0442788,8.96588863 16.4220386,8.58812889 16.8880288,8.58812889 C17.3540191,8.58812889 17.7317788,8.96588863 17.7317788,9.43187889 L17.7317788,13.3693789 C17.7317788,13.8353691 17.3540191,14.2131289 16.8880288,14.2131289 C16.4220386,14.2131289 16.0442788,13.8353691 16.0442788,13.3693789 Z" id="Combined-Shape"></path>
                    </g>
                </g>
            </g>
        </g>
    </g>
</svg>