<?xml version="1.0" encoding="UTF-8"?>
<svg width="18px" height="14px" viewBox="0 0 18 14" version="1.1" xmlns="http://www.w3.org/2000/svg" xmlns:xlink="http://www.w3.org/1999/xlink">
    <!-- Generator: Sketch 52.4 (67378) - http://www.bohemiancoding.com/sketch -->
    <title>形状</title>
    <desc>Created with Sketch.</desc>
    <g id="发职位" stroke="none" stroke-width="1" fill="none" fill-rule="evenodd">
        <g id="发职位-校园招聘-应届生职位" transform="translate(-333.000000, -126.000000)" fill="#5897FF" fill-rule="nonzero">
            <g id="tab" transform="translate(120.000000, 104.000000)">
                <g id="Group-4" transform="translate(213.000000, 18.000000)">
                    <g id="Group-2" transform="translate(0.000000, 2.000000)">
                        <g id="Group" transform="translate(0.000000, 2.000000)">
                            <path d="M9.00032522,9.25 C8.83379481,9.25 8.67106158,9.21411837 8.56523313,9.15409076 L0.165282262,5.03194645 C0.0632333955,4.97403161 0,4.86505514 0,4.74675761 C0,4.62851335 0.0632509697,4.51937709 0.165282262,4.46156878 L8.56605935,0.339442216 C8.7739191,0.220434517 9.2246042,0.219582301 9.43583923,0.340507473 L17.8347177,4.46156877 C17.9367666,4.51937707 18,4.62849559 18,4.7467576 C18,4.86503738 17.936749,4.97403161 17.8347177,5.03194643 L9.43459108,9.15439258 C9.32960644,9.21422489 9.16685563,9.25 9.00032522,9.25 Z M16.0442788,11.3693789 L16.0442788,7.43187889 C16.0442788,6.96588863 16.4220386,6.58812889 16.8880288,6.58812889 C17.3540191,6.58812889 17.7317788,6.96588863 17.7317788,7.43187889 L17.7317788,11.3693789 C17.7317788,11.8353691 17.3540191,12.2131289 16.8880288,12.2131289 C16.4220386,12.2131289 16.0442788,11.8353691 16.0442788,11.3693789 Z M15.1804353,7.33456208 L15.1804353,11.5 C15.1804353,12.7426407 14.173076,13.75 12.9304353,13.75 L5.05543529,13.75 C3.8127946,13.75 2.80543529,12.7426407 2.80543529,11.5 L2.80543529,7.32756019 L8.56523313,10.1540908 C8.67106158,10.2141184 8.83379481,10.25 9.00032522,10.25 C9.16685563,10.25 9.32960644,10.2142249 9.43459108,10.1543926 L15.1804353,7.33456208 Z" id="形状"></path>
                        </g>
                    </g>
                </g>
            </g>
        </g>
    </g>
</svg>