<?xml version="1.0" encoding="UTF-8"?>
<svg width="1109px" height="1109px" viewBox="0 0 1109 1109" version="1.1" xmlns="http://www.w3.org/2000/svg" xmlns:xlink="http://www.w3.org/1999/xlink">
    <!-- Generator: Sketch 49.1 (51147) - http://www.bohemiancoding.com/sketch -->
    <title>搜索@2x</title>
    <desc>Created with Sketch.</desc>
    <defs></defs>
    <g id="搜索" stroke="none" stroke-width="1" fill="none" fill-rule="evenodd">
        <path d="M43,483.471306 C43,240.045871 241.045871,42 484.483498,42 C727.922276,42 925.979419,240.045871 925.979419,483.471306 C925.979419,726.896741 727.922276,924.954114 484.483498,924.954114 C241.045871,924.954114 43,726.909393 43,483.471306 Z M151.666285,483.471306 C151.666285,666.989063 300.96528,816.282767 484.483498,816.282767 C668.001716,816.282767 817.307152,666.989063 817.307152,483.471306 C817.307152,299.96505 668.001946,150.659844 484.483498,150.659844 C300.96505,150.659844 151.666285,299.96505 151.666285,483.471306 Z M952.835552,1046.37997 L722.181652,815.732974 C696.069925,789.626998 696.069925,747.281647 722.181652,721.163019 C748.307182,695.057042 790.645631,695.057042 816.76426,721.163019 L1047.41103,951.797135 C1073.52966,977.916914 1073.52966,1020.26134 1047.41103,1046.37974 C1034.35171,1059.43331 1017.24509,1065.95399 1000.12674,1065.95399 C983.007467,1065.95399 965.894636,1059.43354 952.835552,1046.37997 Z" id="Shape" fill="#3E4959" fill-rule="nonzero"></path>
    </g>
</svg>