<?xml version="1.0" encoding="UTF-8"?>
<svg width="15px" height="16px" viewBox="0 0 15 16" version="1.1" xmlns="http://www.w3.org/2000/svg" xmlns:xlink="http://www.w3.org/1999/xlink">
    <!-- Generator: Sketch 52.2 (67145) - http://www.bohemiancoding.com/sketch -->
    <title>Combined Shape</title>
    <desc>Created with Sketch.</desc>
    <g id="发职位" stroke="none" stroke-width="1" fill="none" fill-rule="evenodd">
        <g id="发职位-校园招聘-应届生职位" transform="translate(-162.000000, -125.000000)" fill="#666666" fill-rule="nonzero">
            <g id="tab" transform="translate(120.000000, 104.000000)">
                <g id="Group-3" transform="translate(42.000000, 18.000000)">
                    <path d="M5,11 L5,12.8181818 L10,12.8181818 L10,11 L10.625,11 C13.0412458,11 15,12.790861 15,15 C15,17.209139 13.0412458,19 10.625,19 L4.375,19 C1.95875422,19 0,17.209139 0,15 C0,12.790861 1.95875422,11 4.375,11 L5,11 Z M5,12.8181818 L4.32539683,12.8181818 C2.92276889,12.8181818 1.78571429,13.7950151 1.78571429,15 C1.78571429,16.2049849 2.92276889,17.1818182 4.32539683,17.1818182 L10.6746032,17.1818182 C12.0772311,17.1818182 13.2142857,16.2049849 13.2142857,15 C13.2142857,13.7950151 12.0772311,12.8181818 10.6746032,12.8181818 L10,12.8181818 L5,12.8181818 Z M7.5,10.2727273 C5.52755446,10.2727273 3.92857143,8.64467182 3.92857143,6.63636364 C3.92857143,4.62805546 5.52755446,3 7.5,3 C9.47244553,3 11.0714286,4.62805546 11.0714286,6.63636364 C11.0714286,8.64467182 9.47244553,10.2727273 7.5,10.2727273 Z M7.5,8.45454545 C8.48622277,8.45454545 9.28571429,7.64051773 9.28571429,6.63636364 C9.28571429,5.63220955 8.48622277,4.81818182 7.5,4.81818182 C6.51377723,4.81818182 5.71428571,5.63220955 5.71428571,6.63636364 C5.71428571,7.64051773 6.51377723,8.45454545 7.5,8.45454545 Z M6.07142857,11 L8.92857143,11 L7.97619049,12.5664336 L8.92857143,14.9160839 L7.5,16.0909091 L6.07142857,14.9160839 L7.02380953,12.5664336 L6.07142857,11 Z" id="Combined-Shape"></path>
                </g>
            </g>
        </g>
    </g>
</svg>