<?xml version="1.0" encoding="UTF-8"?>
<svg width="15px" height="16px" viewBox="0 0 15 16" version="1.1" xmlns="http://www.w3.org/2000/svg" xmlns:xlink="http://www.w3.org/1999/xlink">
    <!-- Generator: Sketch 52.4 (67378) - http://www.bohemiancoding.com/sketch -->
    <title>Combined Shape</title>
    <desc>Created with Sketch.</desc>
    <g id="发职位" stroke="none" stroke-width="1" fill="none" fill-rule="evenodd">
        <g id="发职位-社会招聘" transform="translate(-162.000000, -125.000000)" fill="#5897FF" fill-rule="nonzero">
            <g id="tab" transform="translate(120.000000, 104.000000)">
                <g id="Group-3" transform="translate(42.000000, 21.000000)">
                    <path d="M6.09598384,8.06299213 L7.03355102,9.80751445 L6.09598384,12.4242979 L7.50233459,13.7326897 L8.90868535,12.4242979 L7.97111819,9.80751445 L8.90868535,8.06299213 L10.625,8.06299213 C13.0412458,8.06299213 15,9.83975186 15,12.0314961 C15,14.2232403 13.0412458,16 10.625,16 L4.375,16 C1.95875422,16 0,14.2232403 0,12.0314961 C0,9.83975186 1.95875422,8.06299213 4.375,8.06299213 L6.09598384,8.06299213 Z M7.5,7.05511811 C5.56700338,7.05511811 4,5.47577613 4,3.52755906 C4,1.57934198 5.56700338,0 7.5,0 C9.43299662,0 11,1.57934198 11,3.52755906 C11,5.47577613 9.43299662,7.05511811 7.5,7.05511811 Z" id="Combined-Shape"></path>
                </g>
            </g>
        </g>
    </g>
</svg>