<?xml version="1.0" encoding="UTF-8"?>
<svg width="1024px" height="1024px" viewBox="0 0 1024 1024" version="1.1" xmlns="http://www.w3.org/2000/svg" xmlns:xlink="http://www.w3.org/1999/xlink">
    <!-- Generator: Sketch 48.2 (47327) - http://www.bohemiancoding.com/sketch -->
    <title>3</title>
    <desc>Created with Sketch.</desc>
    <defs></defs>
    <g id="Page-1" stroke="none" stroke-width="1" fill="none" fill-rule="evenodd">
        <g id="3" fill="#000000">
            <path d="M512,1024 C229.230208,1024 0,794.769792 0,512 C0,229.230208 229.230208,0 512,0 C794.769792,0 1024,229.230208 1024,512 C1024,794.769792 794.769792,1024 512,1024 Z M446.857143,522.142857 L484.571429,522.142857 C512.285853,522.142857 535.142767,530.571344 553.142857,547.428571 C571.428663,564.85723 580.85714,589.428413 581.428571,621.142857 C580.85714,652.28587 571.428663,676.28563 553.142857,693.142857 C535.142767,711.142947 513.000131,720.142857 486.714286,720.142857 C462.142734,720.142857 442.428646,713.428639 427.571429,700 C412.999927,687.142793 401.714326,670.285819 393.714286,649.428571 L304.142857,649.428571 C313.857191,701.428831 335.142693,741.14272 368,768.571429 C400.857307,796.000137 438.571216,809.714286 481.142857,809.714286 C536.28599,809.142854 581.428396,791.571601 616.571429,757 C652.285893,723.285546 670.428569,677.14315 671,618.571429 C671,592.285583 665.428627,567.142977 654.285714,543.142857 C642.57137,519.142737 623.57156,498.571514 597.285714,481.428571 C623.000129,463.999913 640.857093,444.142969 650.857143,421.857143 C659.428614,399.571317 663.714286,376.428691 663.714286,352.428571 C663.142854,304.999763 646.857303,263.857317 614.857143,229 C581.428404,193.285536 536.285999,175.14286 479.428571,174.571429 C434.571204,175.14286 396.000161,191.1427 363.714286,222.571429 C330.856979,254.285873 312.14288,293.285483 307.571429,339.571429 L397.142857,339.571429 C402.857171,313.857014 413.999917,294.857204 430.571429,282.571429 C446.285793,270.285653 463.71419,264.142857 482.857143,264.142857 C509.428704,264.714289 531.142773,273.142776 548,289.428571 C564.857227,306.285799 573.571426,327.857011 574.142857,354.142857 C574.142857,380.142987 565.71437,401.285633 548.857143,417.571429 C531.999916,434.428656 508.285867,442.857143 477.714286,442.857143 L446.857143,442.857143 L446.857143,522.142857 Z"></path>
        </g>
    </g>
</svg>