<?xml version="1.0" encoding="UTF-8"?>
<svg width="1024px" height="1024px" viewBox="0 0 1024 1024" version="1.1" xmlns="http://www.w3.org/2000/svg" xmlns:xlink="http://www.w3.org/1999/xlink">
    <!-- Generator: Sketch 48.2 (47327) - http://www.bohemiancoding.com/sketch -->
    <title>2</title>
    <desc>Created with Sketch.</desc>
    <defs></defs>
    <g id="Page-1" stroke="none" stroke-width="1" fill="none" fill-rule="evenodd">
        <g id="2" fill="#000000">
            <path d="M512,1024 C229.230208,1024 0,794.769792 0,512 C0,229.230208 229.230208,0 512,0 C794.769792,0 1024,229.230208 1024,512 C1024,794.769792 794.769792,1024 512,1024 Z M320.857143,804.571429 L677,804.571429 L677,715 L438.285714,715 L639.285714,463 C664.428697,430.99984 677,394.428777 677,353.285714 C676.428569,301.856886 659.143027,259.428739 625.142857,226 C591.714119,192.285546 548.143126,175.14286 494.428571,174.571429 C446.428331,175.14286 406.000164,191.999834 373.142857,225.142857 C340.571266,259.143027 323.142869,302.142597 320.857143,354.142857 L410,354.142857 C413.142873,325.571286 423.142773,303.42865 440,287.714286 C456.285796,271.999921 476.714163,264.142857 501.285714,264.142857 C529.000139,264.714289 550.428496,273.714199 565.571429,291.142857 C580.14293,308.571516 587.428571,328.999883 587.428571,352.428571 C587.428571,361.285759 586.285726,370.714236 584,380.714286 C580.571411,391.285767 574.142904,402.714224 564.714286,415 L320.857143,720.142857 L320.857143,804.571429 Z"></path>
        </g>
    </g>
</svg>